<svg width="24" height="24" viewBox="0 0 24 24" fill="none" xmlns="http://www.w3.org/2000/svg">
<mask id="mask0_263_1765" style="mask-type:alpha" maskUnits="userSpaceOnUse" x="0" y="0" width="24" height="24">
<rect width="24" height="24" fill="white"/>
</mask>
<g mask="url(#mask0_263_1765)">
<circle cx="12" cy="12" r="9" stroke="#ABABAB" stroke-width="2"/>
<path d="M13.15 18L8.66667 13.7222V12.5H11C11.5889 12.5 12.0972 12.3243 12.525 11.9729C12.9528 11.6215 13.2111 11.1861 13.3 10.6667H8V9.44444H13.1C12.9111 9.08796 12.6306 8.79514 12.2583 8.56597C11.8861 8.33681 11.4667 8.22222 11 8.22222H8V7H16V8.22222H13.8333C13.9889 8.39537 14.1278 8.5838 14.25 8.7875C14.3722 8.9912 14.4667 9.21019 14.5333 9.44444H16V10.6667H14.65C14.5611 11.5324 14.1722 12.2581 13.4833 12.8438C12.7944 13.4294 11.9667 13.7222 11 13.7222H10.5167L15 18H13.15Z" fill="#ABABAB"/>
</g>
</svg>
