<svg width="20" height="20" viewBox="0 0 20 20" fill="none" xmlns="http://www.w3.org/2000/svg">
<circle cx="10" cy="10" r="9" stroke="#FF6565" stroke-width="2"/>
<path d="M11.15 16L6.66667 11.7222V10.5H9C9.58889 10.5 10.0972 10.3243 10.525 9.97292C10.9528 9.62153 11.2111 9.18611 11.3 8.66667H6V7.44444H11.1C10.9111 7.08796 10.6306 6.79514 10.2583 6.56597C9.88611 6.33681 9.46667 6.22222 9 6.22222H6V5H14V6.22222H11.8333C11.9889 6.39537 12.1278 6.5838 12.25 6.7875C12.3722 6.9912 12.4667 7.21019 12.5333 7.44444H14V8.66667H12.65C12.5611 9.53241 12.1722 10.2581 11.4833 10.8437C10.7944 11.4294 9.96667 11.7222 9 11.7222H8.51667L13 16H11.15Z" fill="#FF6565"/>
</svg>
