
<svg width="122" height="106" viewBox="0 0 122 106" fill="none" xmlns="http://www.w3.org/2000/svg">
<g clip-path="url(#clip0_289_2888)">
<path d="M70.1595 41.7368H29.666V42.5315H70.1595V41.7368Z" fill="#D3D3D3"/>
<mask id="mask0_289_2888" style="mask-type:alpha" maskUnits="userSpaceOnUse" x="29" y="41" width="42" height="2">
<path d="M70.1595 41.7368H29.666V42.5315H70.1595V41.7368Z" fill="url(#paint0_linear_289_2888)"/>
</mask>
<g mask="url(#mask0_289_2888)">
<path d="M70.1595 41.7368H29.666V42.5315H70.1595V41.7368Z" fill="#D3D3D3"/>
</g>
<path d="M122 103.945C122 105.068 94.6853 106 61 106C27.3147 106 0 105.096 0 103.945C0 102.821 27.3147 101.889 61 101.889C94.6853 101.889 122 102.821 122 103.945Z" fill="#DCDBDB"/>
<path d="M32.4276 38.5579H28.545C27.8341 38.5579 27.2326 39.1334 27.2326 39.8733V42.2849C27.2326 42.9974 27.8068 43.6003 28.545 43.6003H31.6893V42.6412C32.6463 42.6412 33.5486 42.2575 34.2048 41.5998L34.6696 41.1339L32.4276 38.5579Z" fill="#F8A58F"/>
<path d="M32.4276 38.5579L34.6696 41.1065L44.3487 38.8594L43.0089 35.2694L32.4276 38.5579Z" fill="#F8A58F"/>
<path d="M43.009 35.2694L42.5168 35.4338L42.3801 39.3253L44.3487 38.8594L43.009 35.2694Z" fill="#F68E76"/>
<path d="M61.5195 21.4302C60.2345 20.4162 58.4025 20.6081 57.3636 21.8413L47.3017 33.4881L45.4971 34.091L47.1923 38.6127L48.1493 38.3935C49.6531 38.0646 51.0202 37.2973 52.0865 36.1737L61.8476 25.8971C63.078 24.6091 62.914 22.5264 61.5195 21.4302Z" fill="#5FBD6C"/>
<path d="M47.2469 38.7497L47.1922 38.6127L45.497 34.091L45.333 33.6525C45.251 33.4059 44.9502 33.2689 44.7041 33.3511L43.0362 33.9814C42.7902 34.0636 42.6535 34.365 42.7355 34.6117L42.8722 34.9679L44.458 39.1882L44.6494 39.7089C44.7315 39.9555 45.0322 40.0925 45.2783 40.0103L46.9462 39.38C47.1922 39.2978 47.3289 38.9964 47.2469 38.7497Z" fill="#25A049"/>
<path d="M57.9651 22.3072C58.8947 21.211 60.4532 20.937 61.7109 21.5947C61.6289 21.5399 61.5742 21.4577 61.4922 21.4028C60.2071 20.3889 58.3752 20.5807 57.3362 21.8139L47.3017 33.4882L45.4971 34.0911L45.7706 34.8036L47.7939 34.1185L57.9651 22.3072Z" fill="#25A049"/>
<path d="M58.0198 45.683L37.1305 51.2461C33.5213 52.2052 31.8261 56.3707 33.7674 59.577L45.9619 79.9384L52.7427 76.9239L42.9817 58.3438L62.832 54.1783C66.6598 53.3836 68.9292 49.3826 67.6441 45.6556H58.0198V45.683Z" fill="#1D0E23"/>
<path d="M51.8404 78.3216L51.3209 77.5543L47.4657 79.2807L48.368 80.925L52.6606 79.7192C52.4146 79.2259 52.1412 78.76 51.8404 78.3216Z" fill="#F8A58F"/>
<path d="M50.7741 81.6649L50.4187 82.5693L50.9108 82.2404C51.1022 82.1034 51.3209 82.0212 51.567 82.0212H53.8091C53.481 81.2264 53.0982 80.4591 52.688 79.6918L48.3954 80.8976L48.6414 81.3635H50.6101C50.7194 81.3909 50.8288 81.5279 50.7741 81.6649Z" fill="white"/>
<path d="M45.8251 85.6112H54.93L54.7659 84.9535C54.5198 83.9669 54.1644 82.9803 53.7816 82.0212H51.5396C51.3208 82.0212 51.0748 82.1034 50.8834 82.2404L50.3912 82.5693L50.7467 81.6649C50.8013 81.5279 50.692 81.3909 50.5553 81.3909H48.5866L47.1375 82.7611C46.4813 83.3914 45.6064 83.7203 44.7041 83.7203H43.7198C42.7628 83.7203 41.9152 84.2684 41.4777 85.0631L43.3643 85.3919C44.2119 85.529 45.0322 85.6112 45.8251 85.6112Z" fill="#47284F"/>
<path d="M45.8253 85.6112C45.005 85.6112 44.2121 85.529 43.4192 85.392L41.5326 85.0631C41.3412 85.392 41.2318 85.7756 41.2318 86.1867L44.1027 86.4607C44.5675 86.4881 45.005 86.5156 45.4698 86.5156H55.1762L54.9302 85.6112H45.8253Z" fill="white"/>
<path d="M51.3209 77.5543L47.4657 79.2533L47.8758 80.0207L52.0865 78.7052L51.3209 77.5543Z" fill="#47284F"/>
<path d="M25.7834 43.7921H24.7991L22.2563 52.8081C20.2604 59.8511 21.0806 67.3872 24.4984 73.8547L25.7288 74.3205L25.7834 43.7921Z" fill="#BD4063"/>
<path d="M22.2563 52.8081L24.7991 43.7921H23.8695L18.6471 63.1944C18.1823 64.9483 16.5965 66.154 14.7919 66.154C14.6552 66.154 14.5458 66.2637 14.5458 66.4007V70.1003L24.471 73.8547C21.0806 67.3872 20.2603 59.8511 22.2563 52.8081Z" fill="#EF446B"/>
<path d="M27.7521 89.5573C27.7521 97.2305 21.5455 103.451 13.8897 103.451C6.23398 103.451 0 97.2579 0 89.5573C0 81.8841 6.20663 75.6633 13.8624 75.6633C21.5182 75.6633 27.7521 81.8841 27.7521 89.5573Z" fill="#1D0E23"/>
<path d="M23.8696 89.5574C23.8696 95.093 19.3855 99.5599 13.8898 99.5599C8.36672 99.5599 3.90997 95.0656 3.90997 89.5574C3.90997 84.0217 8.39406 79.5548 13.8898 79.5548C19.3855 79.5548 23.8696 84.0491 23.8696 89.5574Z" fill="#444545"/>
<path d="M22.0377 89.5574C22.0377 94.0791 18.3738 97.7239 13.8897 97.7239C9.37831 97.7239 5.74182 94.0517 5.74182 89.5574C5.74182 85.0357 9.40565 81.3909 13.8897 81.3909C18.3738 81.3909 22.0377 85.0631 22.0377 89.5574Z" fill="#C4D4D9"/>
<path d="M13.8625 81.3909C12.3313 81.3909 10.8822 81.8294 9.65182 82.5693C10.226 82.4323 10.8002 82.3501 11.4291 82.3501C15.421 82.3501 18.6473 85.5838 18.6473 89.5848C18.6473 93.5858 15.421 96.8195 11.4291 96.8195C10.8275 96.8195 10.226 96.7373 9.65182 96.6003C10.8822 97.3402 12.3313 97.7787 13.8625 97.7787C18.3739 97.7787 22.0104 94.1065 22.0104 89.6122C22.0378 85.0631 18.3739 81.3909 13.8625 81.3909Z" fill="#96A4B2"/>
<path d="M17.4715 89.5573C17.4715 91.5579 15.8583 93.1747 13.8624 93.1747C11.8664 93.1747 10.2532 91.5579 10.2532 89.5573C10.2532 87.5568 11.8664 85.94 13.8624 85.94C15.8583 85.9674 17.4715 87.5842 17.4715 89.5573Z" fill="#96A4B2"/>
<path d="M16.3232 89.5574C16.3232 90.9002 15.2296 91.9964 13.8898 91.9964C12.55 91.9964 11.4564 90.9002 11.4564 89.5574C11.4564 88.2146 12.55 87.1184 13.8898 87.1184C15.2296 87.1184 16.3232 88.2146 16.3232 89.5574Z" fill="#BD4063"/>
<path d="M99.0053 89.5573C99.0053 97.2305 92.7986 103.451 85.1429 103.451C77.4871 103.451 71.2805 97.2305 71.2805 89.5573C71.2805 81.8841 77.4871 75.6633 85.1429 75.6633C92.7986 75.6633 99.0053 81.8841 99.0053 89.5573Z" fill="#1D0E23"/>
<path d="M95.1228 89.5574C95.1228 95.093 90.6388 99.5599 85.143 99.5599C79.6473 99.5599 75.1632 95.0656 75.1632 89.5574C75.1632 84.0217 79.6473 79.5548 85.143 79.5548C90.6388 79.5548 95.1228 84.0491 95.1228 89.5574Z" fill="#444545"/>
<path d="M93.2909 89.5574C93.2909 94.0791 89.627 97.7239 85.1429 97.7239C80.6315 97.7239 76.995 94.0517 76.995 89.5574C76.995 85.0357 80.6589 81.3909 85.1429 81.3909C89.6544 81.3909 93.2909 85.0631 93.2909 89.5574Z" fill="#C4D4D9"/>
<path d="M85.143 81.3909C83.6118 81.3909 82.1627 81.8294 80.9323 82.5693C81.5065 82.4323 82.0807 82.3501 82.7095 82.3501C86.7015 82.3501 89.9278 85.5838 89.9278 89.5848C89.9278 93.5858 86.7015 96.8195 82.7095 96.8195C82.108 96.8195 81.5065 96.7373 80.9323 96.6003C82.1627 97.3402 83.6118 97.7787 85.143 97.7787C89.6544 97.7787 93.2909 94.1065 93.2909 89.6122C93.2909 85.0631 89.6544 81.3909 85.143 81.3909Z" fill="#96A4B2"/>
<path d="M88.752 89.5573C88.752 91.5579 87.1389 93.1747 85.1429 93.1747C83.1469 93.1747 81.5338 91.5579 81.5338 89.5573C81.5338 87.5568 83.1469 85.94 85.1429 85.94C87.1389 85.9674 88.752 87.5842 88.752 89.5573Z" fill="#96A4B2"/>
<path d="M87.5764 89.5574C87.5764 90.9002 86.4827 91.9964 85.143 91.9964C83.8032 91.9964 82.7095 90.9002 82.7095 89.5574C82.7095 88.2146 83.8032 87.1184 85.143 87.1184C86.4827 87.1184 87.5764 88.2146 87.5764 89.5574Z" fill="#BD4063"/>
<path d="M14.5459 71.1416C21.6822 71.3609 27.8068 76.3759 29.6934 83.2818L29.9941 84.4053L30.3222 84.5698L29.666 82.2404C27.7521 75.3345 21.6548 70.3195 14.5185 70.1003C14.3272 70.1003 14.1358 70.1003 13.9717 70.1003C10.8821 70.1003 7.95647 70.895 5.35898 72.4022L5.82379 73.197C8.31191 71.8542 11.0735 71.1416 13.9717 71.1416C14.1631 71.1416 14.3545 71.1416 14.5459 71.1416Z" fill="white"/>
<path d="M15.8583 77.4447L30.0215 84.4328L29.7207 83.3092C27.8068 76.4034 21.7095 71.3884 14.5733 71.1691C14.3819 71.1691 14.1905 71.1691 14.0264 71.1691C11.1282 71.1691 8.36663 71.8816 5.87851 73.2245L8.42132 77.4721H15.8583V77.4447Z" fill="#FBC8C4"/>
<path d="M31.0058 85.6386H24.389C21.4088 85.6386 18.5652 84.4602 16.4599 82.3501C14.3545 80.2399 11.511 79.0615 8.53069 79.0615H0.683533L3.17165 76.5677C6.04256 73.6903 9.92513 72.0734 13.9991 72.0734C19.2214 72.0734 24.0883 74.759 26.9045 79.1711L31.0058 85.6386Z" fill="#EF446B"/>
<path d="M25.7835 43.7921L23.2407 52.8081C21.2174 60.0155 22.0923 67.7709 25.7288 74.3206L26.9865 76.6225C30.5683 83.1174 37.4038 87.1458 44.8135 87.1458H107.317L105.075 79.0067C102.861 70.9772 97.7203 64.0713 90.6387 59.6866L86.5921 57.1654H51.8131V58.7001C51.8131 59.714 52.4693 60.6184 53.3989 60.9198C57.1174 62.1804 59.7969 65.469 60.2617 69.3604C61 75.4441 56.2698 80.8154 50.1452 80.8154H45.0596C40.1927 80.8154 35.6539 78.3216 33.0291 74.1835L30.6777 70.4565C28.0802 66.3459 27.1779 61.3857 28.1896 56.6448L30.9238 43.7921H25.7835Z" fill="#EF446B"/>
<path d="M86.5647 57.1381H48.9968V52.6712H78.9636C81.0416 52.6712 83.0376 53.5207 84.4867 55.0005L86.5647 57.1381Z" fill="#444545"/>
<path d="M64.7184 87.7487H47.8484C40.22 87.7487 33.1931 83.5832 29.5019 76.924L28.2442 74.622C24.5257 67.8805 23.6234 60.0703 25.7014 52.6437C26.385 50.2595 26.0569 47.6561 24.8538 45.4912C24.6898 45.1897 24.7991 44.8061 25.0999 44.6417C25.4006 44.4772 25.7834 44.5868 25.9475 44.8883C27.3146 47.3273 27.67 50.2869 26.9318 53C24.9358 60.0977 25.7834 67.5791 29.3652 74.0465L30.623 76.3485C34.0954 82.6515 40.7122 86.5429 47.9031 86.5429H64.7731C65.1012 86.5429 65.402 86.817 65.402 87.1732C65.3473 87.4747 65.0739 87.7487 64.7184 87.7487Z" fill="#FBC8C4"/>
<path d="M65.3474 84.7068H104.009L103.407 85.3097C102.451 86.2688 101.193 86.7895 99.853 86.7895H69.4214C67.8082 86.7895 66.3044 85.9948 65.3474 84.7068Z" fill="#BD4063"/>
<path d="M90.584 82.6789C90.584 87.3102 86.8382 91.0646 82.2174 91.0646C77.5966 91.0646 73.8507 87.3102 73.8507 82.6789C73.8507 78.0475 77.5966 74.2931 82.2174 74.2931C86.8382 74.2931 90.584 78.0749 90.584 82.6789Z" fill="#96A4B2"/>
<path d="M82.2173 89.1463C78.6628 89.1463 75.7919 86.2689 75.7919 82.7063C75.7919 79.1437 78.6628 76.2663 82.2173 76.2663C85.7718 76.2663 88.6427 79.1711 88.6427 82.7063C88.6427 86.2414 85.7718 89.1463 82.2173 89.1463ZM82.2173 76.924C79.0456 76.924 76.4755 79.5 76.4755 82.6789C76.4755 85.8578 79.0456 88.4338 82.2173 88.4338C85.389 88.4338 87.9591 85.8578 87.9591 82.6789C87.9591 79.5274 85.389 76.924 82.2173 76.924Z" fill="#444545"/>
<path d="M86.4006 83.0352H78.0613C77.8699 83.0352 77.7059 82.8708 77.7059 82.679C77.7059 82.4871 77.8699 82.3227 78.0613 82.3227H86.4006C86.592 82.3227 86.7561 82.4871 86.7561 82.679C86.7287 82.8708 86.592 83.0352 86.4006 83.0352Z" fill="#435378"/>
<path d="M85.6899 81.665H78.7724C78.581 81.665 78.4169 81.5006 78.4169 81.3087C78.4169 81.1169 78.581 80.9525 78.7724 80.9525H85.6899C85.8813 80.9525 86.0453 81.1169 86.0453 81.3087C86.018 81.5006 85.8813 81.665 85.6899 81.665Z" fill="#435378"/>
<path d="M84.7056 80.2948H79.7294C79.538 80.2948 79.3739 80.1304 79.3739 79.9385C79.3739 79.7467 79.538 79.5823 79.7294 79.5823H84.7056C84.897 79.5823 85.061 79.7467 85.061 79.9385C85.061 80.1304 84.897 80.2948 84.7056 80.2948Z" fill="#435378"/>
<path d="M83.5571 78.9245H80.8776C80.6862 78.9245 80.5222 78.7601 80.5222 78.5683C80.5222 78.3765 80.6862 78.212 80.8776 78.212H83.5571C83.7485 78.212 83.9126 78.3765 83.9126 78.5683C83.9126 78.7601 83.7485 78.9245 83.5571 78.9245Z" fill="#435378"/>
<path d="M85.6899 84.4054H78.7724C78.581 84.4054 78.4169 84.241 78.4169 84.0492C78.4169 83.8573 78.581 83.6929 78.7724 83.6929H85.6899C85.8813 83.6929 86.0453 83.8573 86.0453 84.0492C86.018 84.241 85.8813 84.4054 85.6899 84.4054Z" fill="#435378"/>
<path d="M84.7056 85.7756H79.7294C79.538 85.7756 79.3739 85.6112 79.3739 85.4194C79.3739 85.2275 79.538 85.0631 79.7294 85.0631H84.7056C84.897 85.0631 85.061 85.2275 85.061 85.4194C85.061 85.6112 84.897 85.7756 84.7056 85.7756Z" fill="#444545"/>
<path d="M83.5571 87.1458H80.8776C80.6862 87.1458 80.5222 86.9814 80.5222 86.7896C80.5222 86.5977 80.6862 86.4333 80.8776 86.4333H83.5571C83.7485 86.4333 83.9126 86.5977 83.9126 86.7896C83.9126 86.9814 83.7485 87.1458 83.5571 87.1458Z" fill="#444545"/>
<path d="M91.2402 64.5372C87.2756 62.1257 82.7095 60.8376 78.034 60.8376H76.4755C68.5464 60.8376 61.8202 67.3325 61.8202 75.2797C61.8202 78.8697 63.1326 82.1582 65.32 84.7068H76.2294H87.1389H103.982L102.505 79.4178C100.783 73.197 96.7359 67.8806 91.2402 64.5372Z" fill="#F16E92"/>
<path d="M89.0257 69.9359C86.1001 68.1546 82.7643 67.2228 79.3739 67.2228H78.1982C72.4017 67.2228 67.4802 71.9912 67.4802 77.8009C67.4802 80.4317 68.4371 82.8433 70.0503 84.7068H78.0342H86.018H98.3493L97.2556 80.8428C95.9979 76.2937 93.0449 72.4023 89.0257 69.9359Z" fill="#EF446B"/>
<path d="M89.1895 82.5693H76.1747C75.9833 82.5693 75.7919 82.4048 75.7919 82.1856C75.7919 81.9938 75.956 81.8019 76.1747 81.8019H89.1895C89.3809 81.8019 89.5723 81.9664 89.5723 82.1856C89.5723 82.4048 89.4082 82.5693 89.1895 82.5693Z" fill="#444545"/>
<path d="M88.7794 81.0894H75.7646C75.5732 81.0894 75.3818 80.925 75.3818 80.7057C75.3818 80.5139 75.5459 80.3221 75.7646 80.3221H88.7794C88.9708 80.3221 89.1622 80.4865 89.1622 80.7057C89.1622 80.925 88.9982 81.0894 88.7794 81.0894Z" fill="#444545"/>
<path d="M88.3967 79.637H75.382C75.1906 79.637 74.9992 79.4726 74.9992 79.2534C74.9992 79.0341 75.1632 78.8697 75.382 78.8697H88.3967C88.5881 78.8697 88.7795 79.0341 88.7795 79.2534C88.7795 79.4726 88.5881 79.637 88.3967 79.637Z" fill="#444545"/>
<path d="M87.9866 78.1572H74.9718C74.7805 78.1572 74.5891 77.9928 74.5891 77.7736C74.5891 77.5817 74.7531 77.3899 74.9718 77.3899H87.9866C88.178 77.3899 88.3694 77.5543 88.3694 77.7736C88.3694 77.9928 88.2054 78.1572 87.9866 78.1572Z" fill="#444545"/>
<path d="M87.6038 76.7047H74.589C74.3976 76.7047 74.2062 76.5403 74.2062 76.321C74.2062 76.1292 74.3703 75.9374 74.589 75.9374H87.6038C87.7952 75.9374 87.9866 76.1018 87.9866 76.321C87.9593 76.5403 87.7952 76.7047 87.6038 76.7047Z" fill="#444545"/>
<path d="M51.8131 57.1381H86.5921C85.8265 57.9054 84.7876 58.3439 83.6939 58.3439H55.0395C53.8364 58.3439 52.7154 57.9328 51.8131 57.1381Z" fill="#BD4063"/>
<path d="M30.9512 43.7921H23.8697H20.5886V37.1329H22.8307C24.7719 37.1329 26.6585 37.5439 28.4084 38.3661L30.0763 39.1334C31.1426 39.6267 31.7168 40.8325 31.4161 41.9834L30.9512 43.7921Z" fill="#EF446B"/>
<path d="M20.5886 37.1329H19.4949V43.7921H20.5886V37.1329Z" fill="#FBC8C4"/>
<path d="M19.4949 37.1329H18.9481V43.7921H19.4949V37.1329Z" fill="white"/>
<path d="M102.669 56.2063C102.806 56.0693 102.806 55.8227 102.669 55.6857C102.533 55.5486 102.287 55.5486 102.15 55.6857L99.0602 58.7823H100.099L102.669 56.2063Z" fill="#C4D4D9"/>
<path d="M99.0601 58.7823L94.0292 63.8247C93.8925 63.9617 93.8925 64.2084 94.0292 64.3454C94.1112 64.4276 94.1932 64.455 94.3026 64.455C94.412 64.455 94.494 64.4276 94.576 64.3454L100.126 58.7823H99.0601Z" fill="white"/>
<path d="M77.8699 60.18H57.008C56.6799 60.18 56.3791 59.9059 56.3791 59.5497C56.3791 59.2208 56.6525 58.9194 57.008 58.9194H77.8699C79.3464 58.9194 80.7682 58.3439 81.8072 57.2751C83.0922 55.9871 84.8148 55.2746 86.6193 55.2746H106.907C107.235 55.2746 107.536 55.5486 107.536 55.9049C107.536 56.2611 107.263 56.5352 106.907 56.5352H86.6193C85.1429 56.5352 83.7211 57.1107 82.6821 58.1794C81.397 59.4674 79.7018 60.18 77.8699 60.18Z" fill="white"/>
<path d="M25.7834 43.7921H30.951L30.8417 44.3676H25.6194L25.7834 43.7921Z" fill="#BD4063"/>
<path d="M115.684 28.2813H79.2372V55.302H115.684V28.2813Z" fill="#FDC069"/>
<path d="M116.75 23.8691H78.1981V28.2812H116.75V23.8691Z" fill="#FDC069"/>
<path d="M115.684 28.2813H79.2372V30.4189H115.684V28.2813Z" fill="#F9A15C"/>
<path d="M83.8033 33.6525L83.6392 34.365H97.4743L102.423 33.6525H83.8033Z" fill="#E86164"/>
<path d="M84.0494 32.5838L83.8853 33.2689H108.165L113.114 32.5838H84.0494Z" fill="#E86164"/>
<path d="M83.8033 48.6154L83.6392 49.3279H97.4743L102.423 48.6154H83.8033Z" fill="#E86164"/>
<path d="M84.0494 47.5192L83.8853 48.2317H108.165L113.114 47.5192H84.0494Z" fill="#E86164"/>
<path d="M58.0197 45.683L40.6028 50.9173C36.7476 52.0683 34.9977 56.5626 37.0757 60.0155L49.0241 79.9659L55.805 76.9514L46.0439 58.3713L65.8942 54.2058C69.722 53.4111 71.9914 49.41 70.7064 45.683H58.0197Z" fill="#3F4F6D"/>
<path d="M54.9028 78.3216L54.4106 77.5543L50.5554 79.2807L51.4577 80.925L55.7504 79.7192C55.477 79.2259 55.2036 78.76 54.9028 78.3216Z" fill="#FCCAAE"/>
<path d="M53.8639 81.6649L53.5084 82.5693L54.0006 82.2404C54.192 82.1034 54.4107 82.0212 54.6568 82.0212H56.8988C56.5707 81.2264 56.1879 80.4591 55.7778 79.6918L51.4851 80.8976L51.7312 81.3635H53.6998C53.8092 81.3909 53.8912 81.5279 53.8639 81.6649Z" fill="white"/>
<path d="M48.9149 85.6112H58.0197L57.8557 84.9535C57.6096 83.9669 57.2815 82.9803 56.8714 82.0212H54.6293C54.4106 82.0212 54.1645 82.1034 53.9731 82.2404L53.481 82.5693L53.8364 81.6649C53.8911 81.5279 53.7817 81.3909 53.645 81.3909H51.6764L50.2273 82.7611C49.5711 83.3914 48.6961 83.7203 47.7938 83.7203H46.8095C45.8525 83.7203 45.0049 84.2684 44.5675 85.0631L46.4541 85.3919C47.3017 85.529 48.0946 85.6112 48.9149 85.6112Z" fill="#47284F"/>
<path d="M48.9148 85.6112C48.0945 85.6112 47.3016 85.529 46.5087 85.392L44.6221 85.0631C44.4307 85.392 44.3214 85.7756 44.3214 86.1867L47.1923 86.4607C47.6571 86.4881 48.0945 86.5156 48.5594 86.5156H58.2384L57.9923 85.6112H48.9148Z" fill="white"/>
<path d="M54.4106 77.5543L50.5554 79.2533L50.9655 80.0207L55.1489 78.7052L54.4106 77.5543Z" fill="#47284F"/>
<path d="M54.1645 14.771L53.645 11.7839C53.4809 10.7699 52.606 10.0574 51.567 10.0574H48.5594L48.8328 11.4825C49.0242 12.5238 48.9968 13.5652 48.7781 14.6066L48.6414 15.182C48.5867 15.4287 48.7781 15.6753 49.0242 15.6753H49.6257C50.3913 18.498 53.809 19.6764 56.1878 17.8677L59.9063 14.9902L57.9377 16.3878C56.4885 17.347 54.4652 16.5249 54.1645 14.771Z" fill="#FCCAAE"/>
<path d="M48.368 9.01608L48.5594 10.0574H51.5671C52.5787 10.0574 53.4537 10.7974 53.645 11.7839L54.1645 14.771C54.4653 16.5249 56.4886 17.3744 57.9377 16.333L59.9064 14.9354V9.01608H48.368Z" fill="#F8A58F"/>
<path d="M59.9063 14.9627L56.1878 17.8128L56.68 19.2378L59.9063 14.9627Z" fill="#47284F"/>
<path d="M62.5039 18.909L59.9064 14.9627L56.6801 19.2378L57.5277 21.6768L62.5039 18.909Z" fill="#FCCAAE"/>
<path d="M50.8014 12.3868C50.8561 12.7431 50.7467 13.0445 50.5553 13.0719C50.3639 13.0993 50.1726 12.8527 50.1179 12.4964C50.0632 12.1402 50.1725 11.8387 50.3639 11.8113C50.5553 11.7839 50.7467 12.0579 50.8014 12.3868Z" fill="#47284F"/>
<path d="M49.9265 11.1809C50.2273 11.0165 50.5828 11.0165 50.8835 11.2357C51.1843 11.4275 51.4304 10.9617 51.1569 10.7698C50.7195 10.4684 50.1453 10.4684 49.6531 10.715C49.3524 10.9068 49.5984 11.3727 49.9265 11.1809Z" fill="#47284F"/>
<path d="M50.6373 14.497L51.2388 14.7162C52.1137 15.0176 53.0707 15.045 53.973 14.7984L55.4768 14.3873L55.1213 13.6748L53.973 14.0037C53.0707 14.2503 52.1137 14.2229 51.2388 13.9215L50.6373 13.7022C50.1178 13.5104 49.5709 13.3734 48.9967 13.2912L48.778 13.2638L48.5866 14.0585L48.9967 14.1133C49.5709 14.1681 50.1178 14.3051 50.6373 14.497Z" fill="white"/>
<path d="M55.477 14.3598L53.9732 14.7709C53.0709 15.0175 52.114 14.9901 51.239 14.6886L50.6375 14.4694C50.118 14.2776 49.5712 14.1406 48.997 14.0583L48.5869 14.0035L48.5322 14.2502C48.4228 14.6886 48.4501 15.1819 48.6142 15.593L48.9423 16.5247C49.5438 18.169 51.0476 19.2926 52.7702 19.3748C53.8365 19.4296 54.9029 19.1008 55.7505 18.4156L57.0082 17.4017L55.477 14.3598Z" fill="#58C5C6"/>
<g opacity="0.3">
<g opacity="0.3">
<path opacity="0.3" d="M54.0004 13.9762L54.1371 14.7709C54.3559 16.0589 55.5042 16.8536 56.6799 16.7714L55.1215 13.6473L54.0004 13.9762Z" fill="#47284F"/>
</g>
</g>
<path d="M56.1878 15.6204L55.0394 18.8816C55.012 18.9912 55.0941 19.1008 55.2034 19.0734C56.051 18.9638 56.8166 18.4705 57.2267 17.7306L58.6759 15.2368L56.1878 15.6204Z" fill="#3F4F6D"/>
<path d="M55.0668 10.6603L55.6957 14.2229C55.8051 14.8258 56.4339 15.182 57.0081 14.9902L63.1874 12.6882V8.24871C63.1874 3.69959 59.4962 0 54.9575 0C50.5007 0 46.8642 3.56256 46.7275 8.00207H51.8951C53.481 8.00207 54.7934 9.12565 55.0668 10.6603Z" fill="#EF446B"/>
<path d="M60.0704 6.68665C59.6603 6.68665 59.2775 6.46742 59.0861 6.08376C58.2658 4.54911 56.7073 3.56256 54.9574 3.56256C54.3559 3.56256 53.8364 3.06928 53.8364 2.43898C53.8364 1.80868 54.3559 1.37021 54.9574 1.37021C57.5276 1.37021 59.8517 2.79523 61.0547 5.06979C61.3281 5.61788 61.1367 6.27559 60.5899 6.57703C60.4258 6.65925 60.2345 6.68665 60.0704 6.68665Z" fill="white"/>
<path d="M51.5671 4.68619C51.2116 4.68619 50.8835 4.52176 50.6648 4.22031C50.3093 3.72703 50.4187 3.01452 50.9109 2.65826L50.9655 2.63086C51.4577 2.2746 52.1686 2.38422 52.524 2.8775C52.8795 3.37078 52.7701 4.08329 52.278 4.43955L52.2506 4.46695C52.0319 4.60397 51.7858 4.68619 51.5671 4.68619Z" fill="white"/>
<path d="M57.0081 14.9627C56.4339 15.1819 55.805 14.8257 55.6957 14.1954L55.0668 10.6328C54.7934 9.09819 53.4536 7.97461 51.9225 7.97461H46.7548C46.7548 8.05682 46.7548 8.13904 46.7548 8.22125V8.98857H51.649C52.8521 8.98857 53.8637 9.8381 54.0825 11.0439L54.7113 14.5791C54.9301 15.8397 56.2698 16.5522 57.4455 16.0589L62.6132 13.7843C62.9686 13.6199 63.2147 13.2636 63.2147 12.88V12.6882L57.0081 14.9627Z" fill="#BD4063"/>
<path d="M56.516 43.7648L58.0198 37.1329L55.8598 25.212C55.6137 23.787 56.2699 22.362 57.5277 21.6769L62.5039 18.909C63.1601 18.5528 63.953 18.635 64.5272 19.1283C68.6285 22.6634 71.1987 27.651 71.6908 33.0771L72.6205 43.5455C72.7298 44.6965 71.8275 45.6831 70.6792 45.6831H57.9925C57.0355 45.6831 56.2973 44.7513 56.516 43.7648Z" fill="#5FBD6C"/>
<path d="M64.0349 23.8691L64.0896 24.0336C64.6091 26.0615 64.2263 28.2264 63.0506 29.9255L58.047 37.1328L57.0353 31.5424L64.0349 23.8691Z" fill="#25A049"/>
<path d="M57.0627 20.334L55.6956 21.0466L57.0627 22.5264L57.5275 21.6769L57.0627 20.334Z" fill="#5FBD6C"/>
<path d="M55.6957 21.0465L55.3676 23.5677L56.7893 22.2249L55.6957 21.0465Z" fill="#25A049"/>
<path d="M63.3242 18.6898L61.8751 17.4018L56.6801 20.2518L57.391 23.2663L63.3242 18.6898Z" fill="#25A049"/>
<path d="M34.0135 39.7911H30.1309C29.42 39.7911 28.8185 40.3666 28.8185 41.1065V43.5181C28.8185 44.2306 29.3927 44.8335 30.1309 44.8335H33.2753V43.8744C34.2322 43.8744 35.1345 43.4907 35.7907 42.833L36.2555 42.3672L34.0135 39.7911Z" fill="#FCCAAE"/>
<path d="M34.0135 39.7911L36.2829 42.3671L45.9346 40.0925L44.5948 36.53L34.0135 39.7911Z" fill="#FCCAAE"/>
<path d="M44.5949 36.53L44.1301 36.667L43.966 40.5584L45.9346 40.0925L44.5949 36.53Z" fill="#F8A58F"/>
<path d="M63.1055 22.6634C61.8204 21.6494 59.9885 21.8413 58.9495 23.0745L48.915 34.7213L47.1104 35.3242L48.8056 39.8459L49.7626 39.6267C51.2664 39.2978 52.6335 38.5305 53.6998 37.4069L63.4336 27.1577C64.664 25.8423 64.5272 23.7596 63.1055 22.6634Z" fill="#5FBD6C"/>
<path d="M48.8329 39.9829L48.7782 39.8459L47.083 35.3242L46.9189 34.8857C46.8369 34.6391 46.5361 34.5021 46.2901 34.5843L44.6222 35.2146C44.3761 35.2968 44.2394 35.5982 44.3214 35.8449L44.4581 36.2011L46.044 40.4214L46.2354 40.9421C46.3174 41.1887 46.6182 41.3257 46.8642 41.2435L48.5321 40.6132C48.8055 40.531 48.9422 40.257 48.8329 39.9829Z" fill="#25A049"/>
<path d="M59.5783 23.5404C60.508 22.4442 62.0665 22.1702 63.3242 22.8279C63.2422 22.7731 63.1875 22.6909 63.1055 22.6361C61.8204 21.6221 59.9885 21.8139 58.9495 23.0471L48.915 34.694L47.1104 35.2969L47.3838 36.0094L49.4071 35.3243L59.5783 23.5404Z" fill="#25A049"/>
<path d="M34.5603 43.8744C34.8611 43.3263 35.5173 43.1345 36.0641 43.4359C36.0368 43.4085 36.0094 43.4085 36.0094 43.3811L33.5213 42.0109C32.9745 41.7094 32.3182 41.9013 32.0175 42.4493C31.7167 42.9974 31.9081 43.6551 32.455 43.9566L34.9431 45.3268C34.4509 45.0254 34.2869 44.3951 34.5603 43.8744Z" fill="#47284F"/>
<path d="M35.4625 45.4638C35.8453 45.4638 36.228 45.2446 36.4468 44.8884C36.7202 44.3677 36.5562 43.7374 36.064 43.4359C35.5172 43.1345 34.8609 43.3263 34.5602 43.8744C34.2868 44.3951 34.4508 45.0254 34.943 45.3268C35.107 45.4364 35.2984 45.4638 35.4625 45.4638Z" fill="#435378"/>
</g>
<defs>
<linearGradient id="paint0_linear_289_2888" x1="29.675" y1="42.1362" x2="70.1709" y2="42.1362" gradientUnits="userSpaceOnUse">
<stop/>
<stop offset="0.5443" stop-color="white"/>
<stop offset="0.9884"/>
<stop offset="1"/>
</linearGradient>
<clipPath id="clip0_289_2888">
<rect width="122" height="106" fill="white"/>
</clipPath>
</defs>
</svg>
